<svg width="20" height="20" viewBox="0 0 20 20" fill="none" xmlns="http://www.w3.org/2000/svg">
<path fill-rule="evenodd" clip-rule="evenodd" d="M6.71739 2.65743C6.00957 3.36525 6.00957 4.51286 6.71739 5.22069L8.69982 7.20311C9.40764 7.91094 10.5553 7.91094 11.2631 7.20311L13.2455 5.22069C13.9533 4.51286 13.9533 3.36525 13.2455 2.65743L11.2631 0.675001C10.5553 -0.0328243 9.40764 -0.0328245 8.69982 0.675L6.71739 2.65743ZM0.657248 8.71837C-0.0505776 9.42619 -0.0505779 10.5738 0.657247 11.2816L2.63967 13.2641C3.3475 13.9719 4.49511 13.9719 5.20293 13.2641L7.18536 11.2816C7.89318 10.5738 7.89318 9.42619 7.18536 8.71837L5.20293 6.73594C4.49511 6.02812 3.3475 6.02812 2.63967 6.73594L0.657248 8.71837ZM6.71739 17.3426C6.00957 16.6347 6.00957 15.4871 6.71739 14.7793L8.69982 12.7969C9.40764 12.0891 10.5553 12.0891 11.2631 12.7969L13.2455 14.7793C13.9533 15.4871 13.9533 16.6347 13.2455 17.3426L11.2631 19.325C10.5553 20.0328 9.40764 20.0328 8.69982 19.325L6.71739 17.3426ZM12.7785 8.71837C12.0707 9.42619 12.0707 10.5738 12.7785 11.2816L14.7609 13.2641C15.4687 13.9719 16.6163 13.9719 17.3242 13.2641L19.3066 11.2816C20.0144 10.5738 20.0144 9.42619 19.3066 8.71837L17.3242 6.73594C16.6163 6.02812 15.4687 6.02812 14.7609 6.73594L12.7785 8.71837Z" fill="#4B5563"/>
</svg>
